<svg xmlns="http://www.w3.org/2000/svg" viewBox="0 0 1020 360" width="100%" height="100%">
  <rect width="1020" height="360" fill="#121214"/>
  
  <g stroke="#1a1a1e" stroke-width="2">
    <line x1="0" y1="90" x2="1020" y2="90" />
    <line x1="0" y1="270" x2="1020" y2="270" />
    <line x1="200" y1="0" x2="200" y2="360" />
    <line x1="820" y1="0" x2="820" y2="360" />
  </g>

  <g transform="translate(40, 100)">
    <g stroke="#5865F2" stroke-width="4" stroke-linecap="round" fill="none">
      <path d="M 0 30 L 0 0 L 30 0" />
      <path d="M 130 0 L 160 0 L 160 30" />
      <path d="M 0 130 L 0 160 L 30 160" />
      <path d="M 130 160 L 160 160 L 160 130" />
    </g>
    <g fill="none" stroke="#FFFFFF" stroke-width="6" stroke-linecap="round" stroke-linejoin="round">
      <line x1="40" y1="60" x2="120" y2="60" />
      <path d="M 40 60 L 25 90 L 55 90 Z" fill="#1A1A1E" />
      <path d="M 120 60 L 105 90 L 135 90 Z" fill="#1A1A1E" />
      <path d="M 80 45 L 80 120 L 105 120" />
      <line x1="65" y1="120" x2="80" y2="120" />
    </g>
    <circle cx="80" cy="25" r="4" fill="#5865F2" />
  </g>

  <g font-family="Segoe UI, Arial, sans-serif" font-weight="bold">
    <text x="240" y="170" font-size="72" fill="#FFFFFF" letter-spacing="5">LEXIS</text>
    <text x="245" y="215" font-size="20" fill="#5865F2" font-weight="600" letter-spacing="6">GTA 5 RP ASSISTANT</text>
    
    <rect x="245" y="245" width="140" height="28" rx="6" fill="#1a1a1e" stroke="#2c2c30" stroke-width="1"/>
    <text x="257" y="263" font-size="11" fill="#aaaaaa" font-weight="500" letter-spacing="0.5">IN-GAME OVERLAY</text>
    
    <rect x="395" y="245" width="115" height="28" rx="6" fill="#1a1a1e" stroke="#2c2c30" stroke-width="1"/>
    <text x="408" y="263" font-size="11" fill="#aaaaaa" font-weight="500" letter-spacing="0.5">JSON PRESETS</text>
  </g>

  <g transform="translate(620, 75)">
    <rect width="340" height="210" rx="12" fill="#1a1a1e" fill-opacity="0.7" stroke="#5865F2" stroke-width="2"/>
    
    <rect x="20" y="20" width="300" height="35" rx="8" fill="#121214" stroke="#2c2c30" stroke-width="1"/>
    <text x="35" y="42" font-family="Segoe UI, Arial, sans-serif" font-size="13" fill="#555555" font-weight="500">Поиск по кодексам... (F9)</text>
    
    <rect x="20" y="70" width="140" height="18" rx="4" fill="#5865F2" fill-opacity="0.2"/>
    <text x="30" y="83" font-family="Segoe UI, Arial, sans-serif" font-size="11" fill="#5865F2" font-weight="bold">Уголовный Кодекс</text>
    
    <rect x="20" y="105" width="220" height="8" rx="4" fill="#ffffff" fill-opacity="0.8"/>
    <rect x="20" y="123" width="280" height="8" rx="4" fill="#ffffff" fill-opacity="0.4"/>
    <rect x="20" y="141" width="190" height="8" rx="4" fill="#ffffff" fill-opacity="0.4"/>
    
    <circle cx="305" cy="85" r="4" fill="#5865F2" />
    <circle cx="315" cy="85" r="4" fill="#2c2c30" />
  </g>
  
  <rect x="0" y="354" width="1020" height="6" fill="#5865F2"/>
</svg>
